<?xml version="1.0" encoding="UTF-8"?>
<svg width="12px" height="12px" viewBox="0 0 12 12" version="1.1" xmlns="http://www.w3.org/2000/svg" xmlns:xlink="http://www.w3.org/1999/xlink">
    <title>shuaxin</title>
    <g id="页面-1" stroke="none" stroke-width="1" fill="none" fill-rule="evenodd">
        <g id="编辑区1" transform="translate(-206.000000, -55.000000)" fill="#9BA4AF" fill-rule="nonzero">
            <g id="组件库" transform="translate(40.000000, 41.000000)">
                <g id="ic/shuxin" transform="translate(164.000000, 12.000000)">
                    <g id="shuaxin" transform="translate(2.000000, 2.000000)">
                        <path d="M11.6088313,6.00117653 C11.3763389,5.98395345 11.173727,6.15784743 11.1558213,6.3899776 C11.0594306,7.68204443 10.4778892,8.89006811 9.52762892,9.77218687 C8.57315914,10.6633898 7.31476135,11.1583066 6.00808988,11.1563907 C4.9867146,11.1563907 4.00018624,10.8599899 3.15424718,10.2971883 C2.41348767,9.8070321 1.81207597,9.13409158 1.40829627,8.34358296 L2.58167622,8.34358296 C2.7325924,8.34361048 2.87205649,8.26322165 2.94752253,8.13270462 C3.02298858,8.00218758 3.02298858,7.84137602 2.94752253,7.71085899 C2.87205649,7.58034196 2.7325924,7.49995313 2.58167622,7.49998065 L0.422368723,7.49998065 C0.189100924,7.49998065 -4.26325641e-14,7.68882745 -4.26325641e-14,7.9217818 L-4.26325641e-14,10.0781877 C-4.26325641e-14,10.3111421 0.189100918,10.4999889 0.422368723,10.4999889 C0.655636527,10.4999889 0.844737445,10.3111421 0.844737445,10.0781877 L0.844737445,9.07018494 C1.30617883,9.84310841 1.93547633,10.5027266 2.68621699,11.0003902 C3.67032424,11.6539701 4.82623506,12.0018015 6.00808988,12 C7.5341447,12 8.98810246,11.4281914 10.1032039,10.3895886 C11.209995,9.36363672 11.8871679,7.95752434 11.9987563,6.45357778 C12.0073604,6.34189406 11.9710638,6.23138771 11.8978919,6.14649171 C11.82472,6.06159571 11.7207002,6.00930337 11.6088313,6.00117653 L11.6088313,6.00117653 Z M11.5776711,1.5 C11.3444254,1.5 11.1553423,1.6888529 11.1553423,1.92180752 L11.1553423,2.92981146 C10.071192,1.11316198 8.109988,0.000222216064 5.99247717,4.50750548e-13 C4.46656637,4.50750548e-13 3.01274584,0.571802231 1.89774961,1.61040631 C0.791155286,2.63656039 0.113713026,4.04247537 0.00117464544,5.54642169 C-0.0160608169,5.77881895 0.158401768,5.98125435 0.391062882,5.99882346 C0.623533318,6.01604657 0.826126061,5.84215239 0.844030108,5.61002194 C0.940411641,4.31795361 1.52189821,3.10992852 2.47206878,2.22780872 C3.42701384,1.33673601 4.68560545,0.841864643 5.99247717,0.843603308 C7.01375604,0.843603308 8.0001913,1.14000446 8.84605052,1.70280666 C9.58674012,2.19296344 10.1880951,2.86590475 10.5918366,3.6564143 L9.41856744,3.6564143 C9.2676655,3.65638678 9.12821458,3.7367757 9.05275565,3.86729289 C8.97729673,3.99781007 8.97729673,4.15862182 9.05275565,4.28913901 C9.12821458,4.41965619 9.2676655,4.50004511 9.41856744,4.50001759 L11.5776711,4.50001759 C11.8109169,4.50001759 12,4.31117057 12,4.07821596 L12,1.92180752 C12,1.80993877 11.9555048,1.70265187 11.8763027,1.62354871 C11.7971007,1.54444556 11.6896797,1.5 11.5776711,1.5 L11.5776711,1.5 Z" id="形状"></path>
                    </g>
                </g>
            </g>
        </g>
    </g>
</svg>